<svg width="100" height="101" viewBox="0 0 100 101" fill="none" xmlns="http://www.w3.org/2000/svg">
<circle cx="2" cy="2" r="2" fill="#ABB2BF"/>
<circle cx="26" cy="2" r="2" fill="#ABB2BF"/>
<circle cx="50" cy="2" r="2" fill="#ABB2BF"/>
<circle cx="74" cy="2" r="2" fill="#ABB2BF"/>
<circle cx="98" cy="2" r="2" fill="#ABB2BF"/>
<circle cx="2" cy="26.25" r="2" fill="#ABB2BF"/>
<circle cx="26" cy="26.25" r="2" fill="#ABB2BF"/>
<circle cx="50" cy="26.25" r="2" fill="#ABB2BF"/>
<circle cx="74" cy="26.25" r="2" fill="#ABB2BF"/>
<circle cx="98" cy="26.25" r="2" fill="#ABB2BF"/>
<circle cx="2" cy="50.5" r="2" fill="#ABB2BF"/>
<circle cx="26" cy="50.5" r="2" fill="#ABB2BF"/>
<circle cx="50" cy="50.5" r="2" fill="#ABB2BF"/>
<circle cx="74" cy="50.5" r="2" fill="#ABB2BF"/>
<circle cx="98" cy="50.5" r="2" fill="#ABB2BF"/>
<circle cx="2" cy="74.75" r="2" fill="#ABB2BF"/>
<circle cx="26" cy="74.75" r="2" fill="#ABB2BF"/>
<circle cx="50" cy="74.75" r="2" fill="#ABB2BF"/>
<circle cx="74" cy="74.75" r="2" fill="#ABB2BF"/>
<circle cx="98" cy="74.75" r="2" fill="#ABB2BF"/>
<circle cx="2" cy="99" r="2" fill="#ABB2BF"/>
<circle cx="26" cy="99" r="2" fill="#ABB2BF"/>
<circle cx="50" cy="99" r="2" fill="#ABB2BF"/>
<circle cx="74" cy="99" r="2" fill="#ABB2BF"/>
<circle cx="98" cy="99" r="2" fill="#ABB2BF"/>
</svg>
