<svg width="44" height="96" viewBox="0 0 44 96" fill="none" xmlns="http://www.w3.org/2000/svg">
<path d="M43.1374 85.0607C43.7232 84.4749 43.7232 83.5251 43.1374 82.9393L33.5915 73.3934C33.0057 72.8076 32.0559 72.8076 31.4701 73.3934C30.8844 73.9792 30.8844 74.9289 31.4701 75.5147L39.9554 84L31.4701 92.4853C30.8844 93.0711 30.8844 94.0208 31.4701 94.6066C32.0559 95.1924 33.0057 95.1924 33.5915 94.6066L43.1374 85.0607ZM2.07674 -1.81368e-06C2.07672 20.963 1.23483 36.6731 0.781 48.505C0.331164 60.2326 0.240658 68.3889 1.88922 73.9279C2.73404 76.7664 4.05696 79.0109 6.0758 80.7162C8.07637 82.4061 10.6432 83.4669 13.8056 84.1534C20.0505 85.5088 29.1608 85.5 42.0767 85.5V82.5C28.993 82.5 20.2908 82.4912 14.442 81.2216C11.5576 80.5956 9.50721 79.6877 8.01167 78.4244C6.5344 77.1766 5.48229 75.4836 4.76457 73.0721C3.28806 68.1111 3.32245 60.5174 3.7788 48.62C4.23114 36.8269 5.07672 21.037 5.07674 1.81368e-06L2.07674 -1.81368e-06Z" fill="white"/>
</svg>
