<svg width="145" height="149" viewBox="0 0 145 149" fill="none" xmlns="http://www.w3.org/2000/svg">
<mask id="path-1-inside-1_533_162" fill="white">
<path fill-rule="evenodd" clip-rule="evenodd" d="M0 41H36H72V77H36V113H72V149H36H0V113V77V41Z"/>
</mask>
<path d="M0 41V40H-1V41H0ZM72 41H73V40H72V41ZM72 77V78H73V77H72ZM36 77V76H35V77H36ZM36 113H35V114H36V113ZM72 113H73V112H72V113ZM72 149V150H73V149H72ZM0 149H-1V150H0V149ZM36 40H0V42H36V40ZM72 40H36V42H72V40ZM73 77V41H71V77H73ZM36 78H72V76H36V78ZM37 113V77H35V113H37ZM36 114H72V112H36V114ZM71 113V149H73V113H71ZM72 148H36V150H72V148ZM0 150H36V148H0V150ZM-1 113V149H1V113H-1ZM-1 77V113H1V77H-1ZM-1 41V77H1V41H-1Z" fill="#C778DD" mask="url(#path-1-inside-1_533_162)"/>
<mask id="path-3-outside-2_533_162" maskUnits="userSpaceOnUse" x="71" y="4" width="74" height="110" fill="black">
<rect fill="white" x="71" y="4" width="74" height="110"/>
<path fill-rule="evenodd" clip-rule="evenodd" d="M72 5H108H144V41V77V113H108H72V77H108V41H72V5Z"/>
</mask>
<path d="M72 5V4H71V5H72ZM144 5H145V4H144V5ZM144 113V114H145V113H144ZM72 113H71V114H72V113ZM72 77V76H71V77H72ZM108 77V78H109V77H108ZM108 41H109V40H108V41ZM72 41H71V42H72V41ZM108 4H72V6H108V4ZM144 4H108V6H144V4ZM145 41V5H143V41H145ZM145 77V41H143V77H145ZM145 113V77H143V113H145ZM108 114H144V112H108V114ZM108 112H72V114H108V112ZM73 113V77H71V113H73ZM72 78H108V76H72V78ZM107 41V77H109V41H107ZM72 42H108V40H72V42ZM71 5V41H73V5H71Z" fill="#C778DD" mask="url(#path-3-outside-2_533_162)"/>
<path fill-rule="evenodd" clip-rule="evenodd" d="M82.5 0H57V25.5H31.5H6V51V76.5V102H31.5H57V76.5H82.5H108V51V25.5V0H82.5ZM31.5 76.5H57V51H82.5V25.5H57V51H31.5V76.5Z" fill="white"/>
</svg>
